<?xml version="1.0" encoding="UTF-8"?>
<svg width="512" height="512" viewBox="0 0 512 512" fill="none" xmlns="http://www.w3.org/2000/svg">
  <rect width="512" height="512" rx="256" fill="#FF6B00"/>
  <path d="M256 128C185.307 128 128 185.307 128 256C128 326.693 185.307 384 256 384C326.693 384 384 326.693 384 256C384 185.307 326.693 128 256 128ZM256 352C203.065 352 160 308.935 160 256C160 203.065 203.065 160 256 160C308.935 160 352 203.065 352 256C352 308.935 308.935 352 256 352Z" fill="white"/>
  <path d="M256 192C221.888 192 194.667 219.221 194.667 253.333C194.667 287.445 221.888 314.667 256 314.667C290.112 314.667 317.333 287.445 317.333 253.333C317.333 219.221 290.112 192 256 192ZM256 282.667C239.595 282.667 226.667 269.739 226.667 253.333C226.667 236.928 239.595 224 256 224C272.405 224 285.333 236.928 285.333 253.333C285.333 269.739 272.405 282.667 256 282.667Z" fill="white"/>
  <path d="M352 128H288V96H224V128H160V160H352V128Z" fill="white"/>
  <path d="M160 352V384H224V416H288V384H352V352H160Z" fill="white"/>
</svg>
