<svg width="200" height="200" viewBox="0 0 200 200" fill="none" xmlns="http://www.w3.org/2000/svg">
<path d="M100 0C44.7715 0 0 44.7715 0 100C0 155.228 44.7715 200 100 200C155.228 200 200 155.228 200 100C200 44.7715 155.228 0 100 0Z" fill="white"/>
<path d="M100 10C50.2944 10 10 50.2944 10 100C10 149.706 50.2944 190 100 190C149.706 190 190 149.706 190 100C190 50.2944 149.706 10 100 10Z" fill="#1E1E1E"/>
<path d="M100 20C55.8172 20 20 55.8172 20 100C20 144.183 55.8172 180 100 180C144.183 180 180 144.183 180 100C180 55.8172 144.183 20 100 20Z" fill="white"/>
<path d="M100 30C61.3401 30 30 61.3401 30 100C30 138.66 61.3401 170 100 170C138.66 170 170 138.66 170 100C170 61.3401 138.66 30 100 30Z" fill="#1E1E1E"/>
<path d="M100 40C66.8629 40 40 66.8629 40 100C40 133.137 66.8629 160 100 160C133.137 160 160 133.137 160 100C160 66.8629 133.137 40 100 40Z" fill="white"/>
<path d="M100 50C72.3858 50 50 72.3858 50 100C50 127.614 72.3858 150 100 150C127.614 150 150 127.614 150 100C150 72.3858 127.614 50 100 50Z" fill="#1E1E1E"/>
<path d="M100 60C77.9086 60 60 77.9086 60 100C60 122.091 77.9086 140 100 140C122.091 140 140 122.091 140 100C140 77.9086 122.091 60 100 60Z" fill="white"/>
<path d="M100 70C83.4315 70 70 83.4315 70 100C70 116.569 83.4315 130 100 130C116.569 130 130 116.569 130 100C130 83.4315 116.569 70 100 70Z" fill="#1E1E1E"/>
<path d="M100 80C88.9543 80 80 88.9543 80 100C80 111.046 88.9543 120 100 120C111.046 120 120 111.046 120 100C120 88.9543 111.046 80 100 80Z" fill="white"/>
<path d="M100 90C94.4772 90 90 94.4772 90 100C90 105.523 94.4772 110 100 110C105.523 110 110 105.523 110 100C110 94.4772 105.523 90 100 90Z" fill="#1E1E1E"/>
</svg>
