<svg width="300" height="80" viewBox="0 0 300 80" fill="none" xmlns="http://www.w3.org/2000/svg">
<path d="M80 40C80 62.0914 62.0914 80 40 80C17.9086 80 0 62.0914 0 40C0 17.9086 17.9086 0 40 0C62.0914 0 80 17.9086 80 40Z" fill="white"/>
<path d="M40 8C22.3269 8 8 22.3269 8 40C8 57.6731 22.3269 72 40 72C57.6731 72 72 57.6731 72 40C72 22.3269 57.6731 8 40 8Z" fill="#1E1E1E"/>
<path d="M40 16C26.7452 16 16 26.7452 16 40C16 53.2548 26.7452 64 40 64C53.2548 64 64 53.2548 64 40C64 26.7452 53.2548 16 40 16Z" fill="white"/>
<path d="M40 24C31.1634 24 24 31.1634 24 40C24 48.8366 31.1634 56 40 56C48.8366 56 56 48.8366 56 40C56 31.1634 48.8366 24 40 24Z" fill="#1E1E1E"/>
<path d="M40 32C35.5817 32 32 35.5817 32 40C32 44.4183 35.5817 48 40 48C44.4183 48 48 44.4183 48 40C48 35.5817 44.4183 32 40 32Z" fill="white"/>
<path d="M100 25H105.5C109.5 25 112.5 28 112.5 32C112.5 36 109.5 39 105.5 39H100V25ZM105.5 36C107.5 36 109 34.5 109 32C109 29.5 107.5 28 105.5 28H103.5V36H105.5Z" fill="white"/>
<path d="M120 25H123.5V39H120V25Z" fill="white"/>
<path d="M132 25H135.5L140.5 39H137L136 35.5H131.5L130.5 39H127L132 25ZM135 33L133.5 28L132 33H135Z" fill="white"/>
<path d="M147 25H150.5V36H156V39H147V25Z" fill="white"/>
<path d="M163 25H166.5V39H163V25Z" fill="white"/>
<path d="M175 25H178.5V36H184V39H175V25Z" fill="white"/>
<path d="M191 25H194.5V39H191V25Z" fill="white"/>
<path d="M203 25H206.5L211.5 39H208L207 35.5H202.5L201.5 39H198L203 25ZM206 33L204.5 28L203 33H206Z" fill="white"/>
<path d="M218 25H221.5V39H218V25Z" fill="white"/>
<path d="M230 25H233.5V36H239V39H230V25Z" fill="white"/>
<path d="M246 25H249.5V39H246V25Z" fill="white"/>
<path d="M257 25H260.5L265.5 39H262L261 35.5H256.5L255.5 39H252L257 25ZM260 33L258.5 28L257 33H260Z" fill="white"/>
<path d="M272 25H275.5V36H281V39H272V25Z" fill="white"/>
<path d="M288 25H291.5V39H288V25Z" fill="white"/>
</svg>
